<svg xmlns="http://www.w3.org/2000/svg" width="228" height="120" fill="none"><g clip-path="url(#a)"><path fill="#24292e" d="M0 0h228v120H0V0Z"/><path fill="#3fb950" d="M49 21h184v12H49zM49 33h184v12H49z" opacity=".25"/><path fill="#f85149" d="M49 45h184v12H49zM49 57h184v12H49z" opacity=".25"/><path fill="#1b1f23" d="M0 0h228v21H0z"/><rect width="6" height="6" x="5" y="7" fill="#6a737d" rx="3"/><rect width="28" height="3" x="15" y="6" fill="#6a737d" rx="1.5"/><rect width="28" height="3" x="15" y="11" fill="#6a737d" rx="1.5"/><rect width="6" height="6" x="55" y="7" fill="#6a737d" rx="3"/><rect width="28" height="3" x="65" y="6" fill="#6a737d" rx="1.5"/><rect width="28" height="3" x="65" y="11" fill="#6a737d" rx="1.5"/><rect width="6" height="6" x="105" y="7" fill="#6a737d" rx="3"/><rect width="28" height="3" x="115" y="6" fill="#6a737d" rx="1.5"/><rect width="28" height="3" x="115" y="11" fill="#6a737d" rx="1.5"/><rect width="42" height="5" x="3" y="25" fill="#444d56" rx="2"/><rect width="42" height="5" x="3" y="31" fill="#444d56" rx="2"/><rect width="42" height="5" x="3" y="37" fill="#444d56" rx="2"/><path fill="#2f363d" d="M0 88h49v32H0z"/><rect width="41" height="4" x="3.5" y="90.5" fill="#24292e" stroke="#444d56" rx="1.5"/><rect width="41" height="13" x="3.5" y="97.5" fill="#24292e" stroke="#444d56" rx="1.5"/><rect width="42" height="5" x="3" y="113" fill="#609926" rx="2"/><path fill="#444d56" d="M48 21h1v99h-1z"/><rect width="105" height="7" x="53" y="35" fill="#3fb950" rx="3.5"/><rect width="55" height="6" x="54" y="24" fill="#3fb950" rx="3"/><rect width="55" height="7" x="53" y="47" fill="#f85149" rx="3.5"/><rect width="76" height="7" x="53" y="59" fill="#f85149" rx="3.5"/></g><defs><clipPath id="a"><path fill="#fff" d="M0 0h228v120H0z"/></clipPath></defs></svg>
